<svg width="124" height="45" viewBox="0 0 124 45" fill="none" xmlns="http://www.w3.org/2000/svg">
<rect width="65" height="45" fill="#A4C6E6"/>
<path d="M18.4399 29.5708V32H9.00391V29.5708H18.4399ZM9.87061 14.2266V32H6.80664V14.2266H9.87061ZM17.207 21.6484V24.041H9.00391V21.6484H17.207ZM18.3789 14.2266V16.668H9.00391V14.2266H18.3789ZM35.2119 29.2656V13.25H38.166V32H35.4927L35.2119 29.2656ZM26.6182 25.5425V25.2861C26.6182 24.2852 26.7362 23.3737 26.9722 22.5518C27.2082 21.7217 27.55 21.0096 27.9976 20.4155C28.4451 19.8133 28.9904 19.3535 29.6333 19.0361C30.2762 18.7106 31.0005 18.5479 31.8062 18.5479C32.6037 18.5479 33.3035 18.7025 33.9058 19.0117C34.508 19.321 35.0207 19.7645 35.4438 20.3423C35.867 20.9119 36.2048 21.5955 36.457 22.3931C36.7093 23.1825 36.8883 24.0614 36.9941 25.0298V25.8477C36.8883 26.7917 36.7093 27.6543 36.457 28.4355C36.2048 29.2168 35.867 29.8923 35.4438 30.4619C35.0207 31.0316 34.5039 31.471 33.8936 31.7803C33.2913 32.0895 32.5874 32.2441 31.7817 32.2441C30.9842 32.2441 30.264 32.0773 29.6211 31.7437C28.9863 31.41 28.4451 30.9421 27.9976 30.3398C27.55 29.7376 27.2082 29.0296 26.9722 28.2158C26.7362 27.3939 26.6182 26.5028 26.6182 25.5425ZM29.5601 25.2861V25.5425C29.5601 26.1447 29.613 26.7062 29.7188 27.2271C29.8327 27.7479 30.0076 28.2077 30.2437 28.6064C30.4797 28.9971 30.7848 29.3063 31.1592 29.5342C31.5417 29.7539 31.9974 29.8638 32.5264 29.8638C33.1937 29.8638 33.743 29.7173 34.1743 29.4243C34.6056 29.1313 34.9434 28.7367 35.1875 28.2402C35.4398 27.7357 35.6107 27.1742 35.7002 26.5557V24.3462C35.6514 23.866 35.5496 23.4185 35.395 23.0034C35.2485 22.5884 35.0492 22.2262 34.7969 21.917C34.5446 21.5996 34.2313 21.3555 33.8569 21.1846C33.4907 21.0055 33.0553 20.916 32.5508 20.916C32.0137 20.916 31.5579 21.0299 31.1836 21.2578C30.8092 21.4857 30.5 21.799 30.2559 22.1978C30.0199 22.5965 29.8449 23.0604 29.731 23.5894C29.617 24.1183 29.5601 24.6839 29.5601 25.2861ZM55.939 28.8872V18.792H58.8931V32H56.1099L55.939 28.8872ZM56.354 26.1406L57.3428 26.1162C57.3428 27.0033 57.2451 27.8211 57.0498 28.5698C56.8545 29.3104 56.5534 29.9574 56.1465 30.5107C55.7396 31.056 55.2188 31.4832 54.584 31.7925C53.9492 32.0936 53.1883 32.2441 52.3013 32.2441C51.6584 32.2441 51.0684 32.1506 50.5312 31.9634C49.9941 31.7762 49.5303 31.4873 49.1396 31.0967C48.7572 30.7061 48.4601 30.1974 48.2485 29.5708C48.0369 28.9442 47.9312 28.1955 47.9312 27.3247V18.792H50.873V27.3491C50.873 27.8293 50.93 28.2321 51.0439 28.5576C51.1579 28.875 51.3125 29.1313 51.5078 29.3267C51.7031 29.522 51.931 29.6603 52.1914 29.7417C52.4518 29.8231 52.7285 29.8638 53.0215 29.8638C53.8597 29.8638 54.5189 29.701 54.999 29.3755C55.4873 29.0418 55.8332 28.5942 56.0366 28.0327C56.2482 27.4712 56.354 26.8405 56.354 26.1406ZM79.4492 26.2139H82.501C82.4033 27.3776 82.0778 28.4152 81.5244 29.3267C80.971 30.23 80.1938 30.9421 79.1929 31.4629C78.1919 31.9837 76.9753 32.2441 75.543 32.2441C74.4443 32.2441 73.4556 32.0488 72.5767 31.6582C71.6978 31.2594 70.945 30.6979 70.3184 29.9736C69.6917 29.2412 69.2116 28.3582 68.8779 27.3247C68.5524 26.2912 68.3896 25.1356 68.3896 23.8579V22.3809C68.3896 21.1032 68.5565 19.9476 68.8901 18.9141C69.2319 17.8805 69.7202 16.9976 70.355 16.2651C70.9897 15.5246 71.7507 14.959 72.6377 14.5684C73.5329 14.1777 74.5379 13.9824 75.6528 13.9824C77.0688 13.9824 78.2651 14.2428 79.2417 14.7637C80.2183 15.2845 80.9751 16.0047 81.5122 16.9243C82.0575 17.8439 82.3911 18.8978 82.5132 20.0859H79.4614C79.38 19.321 79.201 18.6659 78.9243 18.1206C78.6558 17.5754 78.257 17.1603 77.728 16.8755C77.1991 16.5825 76.5073 16.436 75.6528 16.436C74.953 16.436 74.3426 16.5662 73.8218 16.8267C73.3009 17.0871 72.8656 17.4696 72.5156 17.9741C72.1657 18.4787 71.9012 19.1012 71.7222 19.8418C71.5513 20.5742 71.4658 21.4124 71.4658 22.3564V23.8579C71.4658 24.7531 71.5431 25.5669 71.6978 26.2993C71.8605 27.0236 72.1047 27.6462 72.4302 28.167C72.7638 28.6878 73.187 29.0907 73.6997 29.3755C74.2124 29.6603 74.8268 29.8027 75.543 29.8027C76.4137 29.8027 77.1177 29.6644 77.6548 29.3877C78.2 29.111 78.611 28.7082 78.8877 28.1792C79.1725 27.6421 79.3597 26.987 79.4492 26.2139ZM99.1875 29.3511V23.0522C99.1875 22.5802 99.1021 22.1733 98.9312 21.8315C98.7603 21.4897 98.4998 21.2253 98.1499 21.0381C97.8081 20.8509 97.3768 20.7573 96.856 20.7573C96.3758 20.7573 95.9608 20.8387 95.6108 21.0015C95.2609 21.1642 94.9883 21.384 94.793 21.6606C94.5977 21.9373 94.5 22.2507 94.5 22.6006H91.5703C91.5703 22.0798 91.6965 21.5752 91.9487 21.0869C92.201 20.5986 92.5672 20.1632 93.0474 19.7808C93.5275 19.3983 94.1012 19.0972 94.7686 18.8774C95.4359 18.6577 96.1846 18.5479 97.0146 18.5479C98.0075 18.5479 98.8864 18.7147 99.6514 19.0483C100.424 19.382 101.031 19.8866 101.47 20.562C101.918 21.2293 102.142 22.0675 102.142 23.0767V28.9482C102.142 29.5505 102.182 30.0916 102.264 30.5718C102.353 31.0438 102.479 31.4548 102.642 31.8047V32H99.627C99.4886 31.6826 99.3787 31.2798 99.2974 30.7915C99.2241 30.2951 99.1875 29.8149 99.1875 29.3511ZM99.6147 23.9678L99.6392 25.7866H97.5273C96.9821 25.7866 96.502 25.8395 96.0869 25.9453C95.6719 26.043 95.326 26.1895 95.0493 26.3848C94.7726 26.5801 94.5651 26.8161 94.4268 27.0928C94.2884 27.3695 94.2192 27.6828 94.2192 28.0327C94.2192 28.3826 94.3006 28.7041 94.4634 28.9971C94.6261 29.2819 94.8621 29.5057 95.1714 29.6685C95.4888 29.8312 95.8713 29.9126 96.3188 29.9126C96.9211 29.9126 97.446 29.7905 97.8936 29.5464C98.3493 29.2941 98.7074 28.9889 98.9678 28.6309C99.2282 28.2646 99.3665 27.9188 99.3828 27.5933L100.335 28.8994C100.237 29.2331 100.07 29.5911 99.8345 29.9736C99.5985 30.3561 99.2892 30.7223 98.9067 31.0723C98.5324 31.4141 98.0807 31.6948 97.5518 31.9146C97.0309 32.1343 96.4287 32.2441 95.7451 32.2441C94.8825 32.2441 94.1134 32.0732 93.438 31.7314C92.7625 31.3815 92.2336 30.9136 91.8511 30.3276C91.4686 29.7336 91.2773 29.0622 91.2773 28.3135C91.2773 27.6136 91.4076 26.9951 91.668 26.458C91.9365 25.9128 92.3271 25.457 92.8398 25.0908C93.3607 24.7246 93.9954 24.4479 94.7441 24.2607C95.4928 24.0654 96.3473 23.9678 97.3076 23.9678H99.6147ZM111.98 13.25H114.922V29.1802L114.641 32H111.98V13.25ZM123.54 25.2739V25.5303C123.54 26.5068 123.43 27.4061 123.21 28.228C122.999 29.0418 122.673 29.7498 122.234 30.3521C121.803 30.9543 121.265 31.4222 120.623 31.7559C119.988 32.0814 119.251 32.2441 118.413 32.2441C117.591 32.2441 116.875 32.0895 116.265 31.7803C115.654 31.471 115.142 31.0316 114.727 30.4619C114.32 29.8923 113.99 29.2127 113.738 28.4233C113.486 27.634 113.306 26.7632 113.201 25.811V24.9932C113.306 24.0329 113.486 23.1621 113.738 22.3809C113.99 21.5915 114.32 20.9119 114.727 20.3423C115.142 19.7645 115.65 19.321 116.252 19.0117C116.863 18.7025 117.575 18.5479 118.389 18.5479C119.235 18.5479 119.98 18.7106 120.623 19.0361C121.274 19.3617 121.815 19.8255 122.246 20.4277C122.677 21.0218 122.999 21.7298 123.21 22.5518C123.43 23.3737 123.54 24.2811 123.54 25.2739ZM120.598 25.5303V25.2739C120.598 24.6799 120.549 24.1224 120.452 23.6016C120.354 23.0726 120.191 22.6087 119.963 22.21C119.744 21.8112 119.443 21.4979 119.06 21.27C118.686 21.034 118.218 20.916 117.656 20.916C117.135 20.916 116.688 21.0055 116.313 21.1846C115.939 21.3636 115.626 21.6077 115.374 21.917C115.121 22.2262 114.922 22.5843 114.775 22.9912C114.637 23.3981 114.543 23.8376 114.495 24.3096V26.519C114.568 27.1294 114.722 27.6909 114.958 28.2036C115.203 28.7082 115.544 29.1151 115.984 29.4243C116.423 29.7254 116.989 29.876 117.681 29.876C118.226 29.876 118.686 29.7661 119.06 29.5464C119.434 29.3267 119.731 29.0215 119.951 28.6309C120.179 28.2321 120.342 27.7682 120.439 27.2393C120.545 26.7103 120.598 26.1406 120.598 25.5303Z" fill="black"/>
</svg>
